<?xml version="1.0" encoding="UTF-8" standalone="no"?>
<!-- Uploaded to: SVG Repo, www.svgrepo.com, Generator: SVG Repo Mixer Tools -->

<svg
   width="800px"
   height="800px"
   viewBox="0 0 2050 2050"
   data-name="Layer 2"
   id="Layer_2"
   version="1.1"
   sodipodi:docname="splash.svg"
   inkscape:version="1.3.1 (91b66b0783, 2023-11-16)"
   xmlns:inkscape="http://www.inkscape.org/namespaces/inkscape"
   xmlns:sodipodi="http://sodipodi.sourceforge.net/DTD/sodipodi-0.dtd"
   xmlns="http://www.w3.org/2000/svg"
   xmlns:svg="http://www.w3.org/2000/svg">
  <sodipodi:namedview
     id="namedview34"
     pagecolor="#ffffff"
     bordercolor="#000000"
     borderopacity="0.25"
     inkscape:showpageshadow="2"
     inkscape:pageopacity="0.0"
     inkscape:pagecheckerboard="0"
     inkscape:deskcolor="#d1d1d1"
     inkscape:zoom="1.02625"
     inkscape:cx="400.48721"
     inkscape:cy="400"
     inkscape:window-width="1920"
     inkscape:window-height="1017"
     inkscape:window-x="1912"
     inkscape:window-y="-8"
     inkscape:window-maximized="1"
     inkscape:current-layer="Layer_2" />
  <defs
     id="defs1">
    <rect
       x="151.03532"
       y="196.83313"
       width="270.88916"
       height="52.618757"
       id="rect35" />
    <style
       id="style1">.cls-1{fill:#4d4c78;}.cls-2{fill:#67baeb;}.cls-3{fill:#46a1f8;}.cls-4{fill:#c8c2e9;}.cls-5{fill:#f4c23f;}.cls-6{fill:#f4a93f;}.cls-7{fill:#b9b1e0;}.cls-8{fill:#dfdafd;}.cls-9{fill:#fad564;}.cls-10{fill:#83d0fb;}</style>
    <rect
       x="151.03532"
       y="196.83313"
       width="270.88916"
       height="52.618755"
       id="rect35-9" />
  </defs>
  <title
     id="title1" />
  <rect
     class="cls-1"
     height="179.72"
     width="164.3"
     x="942.9"
     y="1406.3"
     id="rect1" />
  <path
     class="cls-2"
     d="M781.8,453.7h-586a42.5,42.5,0,0,0-42.5,42.5V1543.4a42.5,42.5,0,0,0,42.5,42.6H942.9V1484.5a43.6,43.6,0,0,0-.3-5.1L824,491.2A42.5,42.5,0,0,0,781.8,453.7Z"
     id="path1" />
  <path
     class="cls-2"
     d="M1318.9,487.4l-210.8,990.2a43.2,43.2,0,0,0-1,8.8V1586h747.1a42.5,42.5,0,0,0,42.5-42.6V496.2a42.5,42.5,0,0,0-42.5-42.5H1360.5A42.4,42.4,0,0,0,1318.9,487.4Z"
     id="path2" />
  <path
     class="cls-3"
     d="M1326,453.7,1107.1,1481.9v-75.6H942.9v75.6L819.5,453.7H225.7V1557.9l42.8-17.6a978.3,978.3,0,0,1,725.5-7.6l31,12.5,31-12.5a978.3,978.3,0,0,1,725.5,7.6l42.8,17.6V453.7Z"
     id="path3" />
  <path
     class="cls-4"
     d="M1025,1511.6h0a1010.1,1010.1,0,0,0-768.3,0h0V365.9h0a1009.2,1009.2,0,0,1,768.3,0h0Z"
     id="path4" />
  <path
     class="cls-5"
     d="M1614.4,1676.2l-52.3-43.6-52.2,43.6c-17.7,14.8-44.7,2.2-44.7-20.9V1359.2H1659v296.1C1659,1678.4,1632.1,1691,1614.4,1676.2Z"
     id="path5" />
  <path
     class="cls-6"
     d="M1465.2,1468.3a966.5,966.5,0,0,1,193.8,30.8V1359.2H1465.2Z"
     id="path6" />
  <path
     class="cls-4"
     d="M1025,1511.6h0a1010.1,1010.1,0,0,1,768.3,0h0V365.9h0a1009.2,1009.2,0,0,0-768.3,0h0Z"
     id="path7" />
  <path
     class="cls-7"
     d="M320.7,423.2V342.1c-21.5,7.2-42.9,15.1-64,23.8h0V1511.6h0a1094.9,1094.9,0,0,1,768.3,0h0V1390.3l-6.9-2.3C601.4,1251.9,320.7,861.5,320.7,423.2Z"
     id="path8" />
  <path
     class="cls-7"
     d="M1089,423.2V342.1q-32.4,10.8-64,23.8h0V1511.6h0a1094.9,1094.9,0,0,1,768.3,0h0V1390.3l-6.9-2.3C1369.6,1251.9,1089,861.5,1089,423.2Z"
     id="path9" />
  <path
     class="cls-7"
     d="M383.3,598.9a20,20,0,0,1-6.9-38.8,747.5,747.5,0,0,1,516.9,0,20,20,0,1,1-13.8,37.6,706.7,706.7,0,0,0-489.3,0A20.9,20.9,0,0,1,383.3,598.9Z"
     id="path10" />
  <path
     class="cls-7"
     d="M383.3,810.9a20,20,0,0,1-6.9-38.8,746,746,0,0,1,516.9,0,20,20,0,1,1-13.8,37.5,706.7,706.7,0,0,0-489.3,0A18.7,18.7,0,0,1,383.3,810.9Z"
     id="path11" />
  <path
     class="cls-7"
     d="M383.3,1022.8a20,20,0,0,1-6.9-38.7,746,746,0,0,1,516.9,0,20,20,0,1,1-13.8,37.5,706.7,706.7,0,0,0-489.3,0A20.9,20.9,0,0,1,383.3,1022.8Z"
     id="path12" />
  <path
     class="cls-7"
     d="M383.3,1234.8a20,20,0,0,1-6.9-38.8,747.5,747.5,0,0,1,516.9,0,20,20,0,1,1-13.8,37.6,706.7,706.7,0,0,0-489.3,0A20.9,20.9,0,0,1,383.3,1234.8Z"
     id="path13" />
  <path
     class="cls-7"
     d="M1654.7,598.9a20.9,20.9,0,0,1-6.9-1.2,706.7,706.7,0,0,0-489.3,0,20,20,0,0,1-13.8-37.6,747.5,747.5,0,0,1,516.9,0,20,20,0,0,1-6.9,38.8Z"
     id="path14" />
  <path
     class="cls-7"
     d="M1654.7,810.9a18.7,18.7,0,0,1-6.9-1.3,706.7,706.7,0,0,0-489.3,0,20,20,0,1,1-13.8-37.5,746,746,0,0,1,516.9,0,20,20,0,0,1-6.9,38.8Z"
     id="path15" />
  <path
     class="cls-7"
     d="M1654.7,1022.8a20.9,20.9,0,0,1-6.9-1.2,706.7,706.7,0,0,0-489.3,0,20,20,0,1,1-13.8-37.5,746,746,0,0,1,516.9,0,20,20,0,0,1-6.9,38.7Z"
     id="path16" />
  <path
     class="cls-7"
     d="M1654.7,1234.8a20.9,20.9,0,0,1-6.9-1.2,706.7,706.7,0,0,0-489.3,0,20,20,0,1,1-13.8-37.6,747.5,747.5,0,0,1,516.9,0,20,20,0,0,1-6.9,38.8Z"
     id="path17" />
  <path
     class="cls-8"
     d="M1665.7,581.9a20.9,20.9,0,0,1-6.9-1.2,706.7,706.7,0,0,0-489.3,0,20,20,0,0,1-13.8-37.6,747.5,747.5,0,0,1,516.9,0,20,20,0,0,1-6.9,38.8Z"
     id="path18" />
  <path
     class="cls-8"
     d="M1665.7,793.9a18.7,18.7,0,0,1-6.9-1.3,706.7,706.7,0,0,0-489.3,0,20,20,0,1,1-13.8-37.5,746,746,0,0,1,516.9,0,20,20,0,0,1-6.9,38.8Z"
     id="path19" />
  <path
     class="cls-8"
     d="M1665.7,1005.8a20.9,20.9,0,0,1-6.9-1.2,706.7,706.7,0,0,0-489.3,0,20,20,0,1,1-13.8-37.5,746,746,0,0,1,516.9,0,20,20,0,0,1-6.9,38.7Z"
     id="path20" />
  <path
     class="cls-8"
     d="M1665.7,1217.8a20.9,20.9,0,0,1-6.9-1.2,706.7,706.7,0,0,0-489.3,0,20,20,0,1,1-13.8-37.6,747.5,747.5,0,0,1,516.9,0,20,20,0,0,1-6.9,38.8Z"
     id="path21" />
  <path
     class="cls-8"
     d="M394.3,581.9a20,20,0,0,1-6.9-38.8,747.5,747.5,0,0,1,516.9,0,20,20,0,1,1-13.8,37.6,706.7,706.7,0,0,0-489.3,0A20.9,20.9,0,0,1,394.3,581.9Z"
     id="path22" />
  <path
     class="cls-8"
     d="M394.3,793.9a20,20,0,0,1-6.9-38.8,746,746,0,0,1,516.9,0,20,20,0,1,1-13.8,37.5,706.7,706.7,0,0,0-489.3,0A18.7,18.7,0,0,1,394.3,793.9Z"
     id="path23" />
  <path
     class="cls-8"
     d="M394.3,1005.8a20,20,0,0,1-6.9-38.7,746,746,0,0,1,516.9,0,20,20,0,1,1-13.8,37.5,706.7,706.7,0,0,0-489.3,0A20.9,20.9,0,0,1,394.3,1005.8Z"
     id="path24" />
  <path
     class="cls-8"
     d="M394.3,1217.8a20,20,0,0,1-6.9-38.8,747.5,747.5,0,0,1,516.9,0,20,20,0,1,1-13.8,37.6,706.7,706.7,0,0,0-489.3,0A20.9,20.9,0,0,1,394.3,1217.8Z"
     id="path25" />
  <path
     class="cls-1"
     d="M1660.7,588.9a20.9,20.9,0,0,1-6.9-1.2,706.7,706.7,0,0,0-489.3,0,20,20,0,0,1-13.8-37.6,747.5,747.5,0,0,1,516.9,0,20,20,0,0,1-6.9,38.8Z"
     id="path26" />
  <path
     class="cls-1"
     d="M1660.7,800.9a18.7,18.7,0,0,1-6.9-1.3,706.7,706.7,0,0,0-489.3,0,20,20,0,1,1-13.8-37.5,746,746,0,0,1,516.9,0,20,20,0,0,1-6.9,38.8Z"
     id="path27" />
  <path
     class="cls-1"
     d="M1660.7,1012.8a20.9,20.9,0,0,1-6.9-1.2,706.7,706.7,0,0,0-489.3,0,20,20,0,1,1-13.8-37.5,746,746,0,0,1,516.9,0,20,20,0,0,1-6.9,38.7Z"
     id="path28" />
  <path
     class="cls-1"
     d="M1660.7,1224.8a20.9,20.9,0,0,1-6.9-1.2,706.7,706.7,0,0,0-489.3,0,20,20,0,1,1-13.8-37.6,747.5,747.5,0,0,1,516.9,0,20,20,0,0,1-6.9,38.8Z"
     id="path29" />
  <rect
     class="cls-8"
     height="545.11"
     rx="40.8"
     ry="40.8"
     width="81.6"
     x="1711.6"
     y="425.3"
     id="rect29" />
  <rect
     class="cls-8"
     height="352.73"
     rx="29"
     ry="29"
     width="58"
     x="967"
     y="482.3"
     id="rect30" />
  <path
     class="cls-1"
     d="M389.3,588.9a20,20,0,0,1-6.9-38.8,747.5,747.5,0,0,1,516.9,0,20,20,0,1,1-13.8,37.6,706.7,706.7,0,0,0-489.3,0A20.9,20.9,0,0,1,389.3,588.9Z"
     id="path30" />
  <path
     class="cls-1"
     d="M389.3,800.9a20,20,0,0,1-6.9-38.8,746,746,0,0,1,516.9,0,20,20,0,1,1-13.8,37.5,706.7,706.7,0,0,0-489.3,0A18.7,18.7,0,0,1,389.3,800.9Z"
     id="path31" />
  <path
     class="cls-1"
     d="M389.3,1012.8a20,20,0,0,1-6.9-38.7,746,746,0,0,1,516.9,0,20,20,0,1,1-13.8,37.5,706.7,706.7,0,0,0-489.3,0A20.9,20.9,0,0,1,389.3,1012.8Z"
     id="path32" />
  <path
     class="cls-1"
     d="M389.3,1224.8a20,20,0,0,1-6.9-38.8,747.5,747.5,0,0,1,516.9,0,20,20,0,1,1-13.8,37.6,706.7,706.7,0,0,0-489.3,0A20.9,20.9,0,0,1,389.3,1224.8Z"
     id="path33" />
  <rect
     class="cls-9"
     height="105.38"
     rx="19.8"
     ry="19.8"
     width="39.5"
     x="1619.5"
     y="1549.9"
     id="rect33" />
  <rect
     class="cls-10"
     height="449.76"
     rx="19.1"
     ry="19.1"
     width="38.2"
     x="1858.5"
     y="581.9"
     id="rect34" />
  <text
     xml:space="preserve"
     transform="matrix(2.5625,0,0,2.5625,-104.87211,84.896468)"
     id="text34"
     style="white-space:pre;shape-inside:url(#rect35);shape-padding:1.94881;fill:#ff0000;fill-opacity:1;text-align:center"
     x="131.54004"
     y="0"><tspan
       x="162.96387"
       y="209.73117"
       id="tspan6">For God so loved the world, that he gave </tspan><tspan
       x="155.54297"
       y="224.73117"
       id="tspan7">his only born Son, that whoever believes in </tspan><tspan
       x="153.65625"
       y="239.73117"
       id="tspan8">him should not perish, but have eternal life.</tspan></text>
  <text
     xml:space="preserve"
     transform="matrix(2.5625,0,0,2.5625,677.70751,86.665946)"
     id="text34-8"
     style="white-space:pre;shape-inside:url(#rect35-9);shape-padding:1.94881;fill:#ff0000;fill-opacity:1;text-align:center"
     x="131.58398"
     y="0"><tspan
       x="154.47949"
       y="210.5957"
       id="tspan9">这就是上帝爱这世界的方式，上帝他把自己的独子</tspan><tspan
       x="154.47949"
       y="226.76247"
       id="tspan10">赐给他们，让信他的人不会死去，而是获得永生。</tspan></text>
</svg>
