<?xml version="1.0" encoding="UTF-8" standalone="no"?>
<!-- Uploaded to: SVG Repo, www.svgrepo.com, Generator: SVG Repo Mixer Tools -->

<svg
   version="1.1"
   id="Icons"
   viewBox="0 0 32 32"
   xml:space="preserve"
   sodipodi:docname="appicon.svg"
   inkscape:version="1.3.1 (91b66b0783, 2023-11-16)"
   xmlns:inkscape="http://www.inkscape.org/namespaces/inkscape"
   xmlns:sodipodi="http://sodipodi.sourceforge.net/DTD/sodipodi-0.dtd"
   xmlns="http://www.w3.org/2000/svg"
   xmlns:svg="http://www.w3.org/2000/svg"><defs
   id="defs2" /><sodipodi:namedview
   id="namedview2"
   pagecolor="#ffffff"
   bordercolor="#000000"
   borderopacity="0.25"
   inkscape:showpageshadow="2"
   inkscape:pageopacity="0.0"
   inkscape:pagecheckerboard="0"
   inkscape:deskcolor="#d1d1d1"
   inkscape:zoom="32"
   inkscape:cx="20.171875"
   inkscape:cy="14.453125"
   inkscape:window-width="1920"
   inkscape:window-height="1017"
   inkscape:window-x="1912"
   inkscape:window-y="-8"
   inkscape:window-maximized="1"
   inkscape:current-layer="Icons" />
<style
   type="text/css"
   id="style1">
	.st0{fill:none;stroke:#000000;stroke-width:2;stroke-linecap:round;stroke-linejoin:round;stroke-miterlimit:10;}
</style>
<path
   style="fill:#8400ff;fill-opacity:1;stroke-width:0.0296774"
   d="m 9.3575981,22.625204 c -2.137495,0.04446 -3.9770757,-0.02978 -6.1149713,-0.02997 V 13.889123 5.1830123 l 5.758932,5.942e-4 c 3.8758922,3.999e-4 3.9678542,0.1207142 6.9099242,2.1580396 3.304883,-2.0659246 3.227641,-2.1567102 5.587987,-2.2025614 2.371315,-0.046064 4.818419,0.048904 7.193492,0.041314 v 8.7052603 8.705259 c -2.574481,0.07494 -4.419799,-0.06332 -7.197232,0.171901 -0.963569,0.08161 -2.473138,0.452202 -5.534242,1.81666 -3.640954,-1.583798 -5.466776,-1.977927 -6.6038899,-1.954275 z"
   id="path3"
   sodipodi:nodetypes="scccscscccscs" /><path
   class="st0"
   d="M22.6,5C20.3,5,18,5.7,16,7c-2-1.3-4.3-2-6.6-2H3v18h6.4c2.4,0,4.6,0.7,6.6,2c2-1.3,4.3-2,6.6-2H29V5H22.6z"
   id="path1" />
<path
   class="st0"
   d="m 12.988389,13.641092 h 5.628884 m -2.679174,6.840896 -0.01582,-9.973208"
   id="path2"
   sodipodi:nodetypes="cccc"
   style="fill:#ffffff;stroke:#ffffff;stroke-opacity:1" />
</svg>
